<svg xmlns="http://www.w3.org/2000/svg" xmlns:xlink="http://www.w3.org/1999/xlink" width="400" zoomAndPan="magnify" viewBox="0 0 300 149.999998" height="200" preserveAspectRatio="xMidYMid meet" version="1.0"><defs><clipPath id="7bf631d987"><path d="M 2.511719 116 L 18 116 L 18 123 L 2.511719 123 Z M 2.511719 116 " clip-rule="nonzero"/></clipPath><clipPath id="a7ee6755be"><path d="M 2.511719 126 L 18 126 L 18 134 L 2.511719 134 Z M 2.511719 126 " clip-rule="nonzero"/></clipPath><clipPath id="9f5ef0353d"><path d="M 282 106 L 297.261719 106 L 297.261719 114 L 282 114 Z M 282 106 " clip-rule="nonzero"/></clipPath><clipPath id="08620f6a1d"><path d="M 282 116 L 297.261719 116 L 297.261719 123 L 282 123 Z M 282 116 " clip-rule="nonzero"/></clipPath><clipPath id="7058dc4bc5"><path d="M 282 126 L 297.261719 126 L 297.261719 134 L 282 134 Z M 282 126 " clip-rule="nonzero"/></clipPath></defs><g clip-path="url(#7bf631d987)"><path fill="#5271ff" d="M 2.71875 116.371094 L 17.429688 116.371094 L 17.429688 122.992188 L 2.71875 122.992188 Z M 2.71875 116.371094 " fill-opacity="1" fill-rule="nonzero"/></g><g clip-path="url(#a7ee6755be)"><path fill="#5271ff" d="M 2.71875 126.40625 L 17.429688 126.40625 L 17.429688 133.027344 L 2.71875 133.027344 Z M 2.71875 126.40625 " fill-opacity="1" fill-rule="nonzero"/></g><path fill="#5271ff" d="M 21.40625 96.351562 L 36.117188 96.351562 L 36.117188 102.972656 L 21.40625 102.972656 Z M 21.40625 96.351562 " fill-opacity="1" fill-rule="nonzero"/><path fill="#5271ff" d="M 21.40625 106.386719 L 36.117188 106.386719 L 36.117188 113.007812 L 21.40625 113.007812 Z M 21.40625 106.386719 " fill-opacity="1" fill-rule="nonzero"/><path fill="#5271ff" d="M 21.40625 116.371094 L 36.117188 116.371094 L 36.117188 122.992188 L 21.40625 122.992188 Z M 21.40625 116.371094 " fill-opacity="1" fill-rule="nonzero"/><path fill="#5271ff" d="M 21.40625 126.40625 L 36.117188 126.40625 L 36.117188 133.027344 L 21.40625 133.027344 Z M 21.40625 126.40625 " fill-opacity="1" fill-rule="nonzero"/><path fill="#5271ff" d="M 40.089844 66.296875 L 54.804688 66.296875 L 54.804688 72.917969 L 40.089844 72.917969 Z M 40.089844 66.296875 " fill-opacity="1" fill-rule="nonzero"/><path fill="#5271ff" d="M 40.089844 76.332031 L 54.804688 76.332031 L 54.804688 82.953125 L 40.089844 82.953125 Z M 40.089844 76.332031 " fill-opacity="1" fill-rule="nonzero"/><path fill="#5271ff" d="M 40.089844 86.316406 L 54.804688 86.316406 L 54.804688 92.9375 L 40.089844 92.9375 Z M 40.089844 86.316406 " fill-opacity="1" fill-rule="nonzero"/><path fill="#5271ff" d="M 40.089844 96.351562 L 54.804688 96.351562 L 54.804688 102.972656 L 40.089844 102.972656 Z M 40.089844 96.351562 " fill-opacity="1" fill-rule="nonzero"/><path fill="#5271ff" d="M 40.089844 106.386719 L 54.804688 106.386719 L 54.804688 113.007812 L 40.089844 113.007812 Z M 40.089844 106.386719 " fill-opacity="1" fill-rule="nonzero"/><path fill="#5271ff" d="M 40.089844 116.371094 L 54.804688 116.371094 L 54.804688 122.992188 L 40.089844 122.992188 Z M 40.089844 116.371094 " fill-opacity="1" fill-rule="nonzero"/><path fill="#5271ff" d="M 40.089844 126.40625 L 54.804688 126.40625 L 54.804688 133.027344 L 40.089844 133.027344 Z M 40.089844 126.40625 " fill-opacity="1" fill-rule="nonzero"/><path fill="#5271ff" d="M 58.726562 36.242188 L 73.4375 36.242188 L 73.4375 42.863281 L 58.726562 42.863281 Z M 58.726562 36.242188 " fill-opacity="1" fill-rule="nonzero"/><path fill="#5271ff" d="M 58.726562 46.277344 L 73.4375 46.277344 L 73.4375 52.898438 L 58.726562 52.898438 Z M 58.726562 46.277344 " fill-opacity="1" fill-rule="nonzero"/><path fill="#5271ff" d="M 58.726562 56.3125 L 73.4375 56.3125 L 73.4375 62.933594 L 58.726562 62.933594 Z M 58.726562 56.3125 " fill-opacity="1" fill-rule="nonzero"/><path fill="#5271ff" d="M 58.726562 66.296875 L 73.4375 66.296875 L 73.4375 72.917969 L 58.726562 72.917969 Z M 58.726562 66.296875 " fill-opacity="1" fill-rule="nonzero"/><path fill="#5271ff" d="M 58.726562 76.332031 L 73.4375 76.332031 L 73.4375 82.953125 L 58.726562 82.953125 Z M 58.726562 76.332031 " fill-opacity="1" fill-rule="nonzero"/><path fill="#5271ff" d="M 58.726562 86.316406 L 73.4375 86.316406 L 73.4375 92.9375 L 58.726562 92.9375 Z M 58.726562 86.316406 " fill-opacity="1" fill-rule="nonzero"/><path fill="#5271ff" d="M 58.726562 96.351562 L 73.4375 96.351562 L 73.4375 102.972656 L 58.726562 102.972656 Z M 58.726562 96.351562 " fill-opacity="1" fill-rule="nonzero"/><path fill="#5271ff" d="M 58.726562 106.386719 L 73.4375 106.386719 L 73.4375 113.007812 L 58.726562 113.007812 Z M 58.726562 106.386719 " fill-opacity="1" fill-rule="nonzero"/><path fill="#5271ff" d="M 58.726562 116.371094 L 73.4375 116.371094 L 73.4375 122.992188 L 58.726562 122.992188 Z M 58.726562 116.371094 " fill-opacity="1" fill-rule="nonzero"/><path fill="#5271ff" d="M 58.726562 126.40625 L 73.4375 126.40625 L 73.4375 133.027344 L 58.726562 133.027344 Z M 58.726562 126.40625 " fill-opacity="1" fill-rule="nonzero"/><path fill="#5271ff" d="M 77.414062 106.386719 L 92.125 106.386719 L 92.125 113.007812 L 77.414062 113.007812 Z M 77.414062 106.386719 " fill-opacity="1" fill-rule="nonzero"/><path fill="#5271ff" d="M 77.414062 116.371094 L 92.125 116.371094 L 92.125 122.992188 L 77.414062 122.992188 Z M 77.414062 116.371094 " fill-opacity="1" fill-rule="nonzero"/><path fill="#5271ff" d="M 77.414062 126.40625 L 92.125 126.40625 L 92.125 133.027344 L 77.414062 133.027344 Z M 77.414062 126.40625 " fill-opacity="1" fill-rule="nonzero"/><path fill="#5271ff" d="M 96.097656 56.3125 L 110.808594 56.3125 L 110.808594 62.933594 L 96.097656 62.933594 Z M 96.097656 56.3125 " fill-opacity="1" fill-rule="nonzero"/><path fill="#5271ff" d="M 96.097656 66.296875 L 110.808594 66.296875 L 110.808594 72.917969 L 96.097656 72.917969 Z M 96.097656 66.296875 " fill-opacity="1" fill-rule="nonzero"/><path fill="#5271ff" d="M 96.097656 76.332031 L 110.808594 76.332031 L 110.808594 82.953125 L 96.097656 82.953125 Z M 96.097656 76.332031 " fill-opacity="1" fill-rule="nonzero"/><path fill="#5271ff" d="M 96.097656 86.316406 L 110.808594 86.316406 L 110.808594 92.9375 L 96.097656 92.9375 Z M 96.097656 86.316406 " fill-opacity="1" fill-rule="nonzero"/><path fill="#5271ff" d="M 96.097656 96.351562 L 110.808594 96.351562 L 110.808594 102.972656 L 96.097656 102.972656 Z M 96.097656 96.351562 " fill-opacity="1" fill-rule="nonzero"/><path fill="#5271ff" d="M 96.097656 106.386719 L 110.808594 106.386719 L 110.808594 113.007812 L 96.097656 113.007812 Z M 96.097656 106.386719 " fill-opacity="1" fill-rule="nonzero"/><path fill="#5271ff" d="M 96.097656 116.371094 L 110.808594 116.371094 L 110.808594 122.992188 L 96.097656 122.992188 Z M 96.097656 116.371094 " fill-opacity="1" fill-rule="nonzero"/><path fill="#5271ff" d="M 96.097656 126.40625 L 110.808594 126.40625 L 110.808594 133.027344 L 96.097656 133.027344 Z M 96.097656 126.40625 " fill-opacity="1" fill-rule="nonzero"/><path fill="#5271ff" d="M 114.785156 26.257812 L 129.496094 26.257812 L 129.496094 32.878906 L 114.785156 32.878906 Z M 114.785156 26.257812 " fill-opacity="1" fill-rule="nonzero"/><path fill="#5271ff" d="M 114.785156 36.242188 L 129.496094 36.242188 L 129.496094 42.863281 L 114.785156 42.863281 Z M 114.785156 36.242188 " fill-opacity="1" fill-rule="nonzero"/><path fill="#5271ff" d="M 114.785156 46.277344 L 129.496094 46.277344 L 129.496094 52.898438 L 114.785156 52.898438 Z M 114.785156 46.277344 " fill-opacity="1" fill-rule="nonzero"/><path fill="#5271ff" d="M 114.785156 56.3125 L 129.496094 56.3125 L 129.496094 62.933594 L 114.785156 62.933594 Z M 114.785156 56.3125 " fill-opacity="1" fill-rule="nonzero"/><path fill="#5271ff" d="M 114.785156 66.296875 L 129.496094 66.296875 L 129.496094 72.917969 L 114.785156 72.917969 Z M 114.785156 66.296875 " fill-opacity="1" fill-rule="nonzero"/><path fill="#5271ff" d="M 114.785156 76.332031 L 129.496094 76.332031 L 129.496094 82.953125 L 114.785156 82.953125 Z M 114.785156 76.332031 " fill-opacity="1" fill-rule="nonzero"/><path fill="#5271ff" d="M 114.785156 86.316406 L 129.496094 86.316406 L 129.496094 92.9375 L 114.785156 92.9375 Z M 114.785156 86.316406 " fill-opacity="1" fill-rule="nonzero"/><path fill="#5271ff" d="M 114.785156 96.351562 L 129.496094 96.351562 L 129.496094 102.972656 L 114.785156 102.972656 Z M 114.785156 96.351562 " fill-opacity="1" fill-rule="nonzero"/><path fill="#5271ff" d="M 114.785156 106.386719 L 129.496094 106.386719 L 129.496094 113.007812 L 114.785156 113.007812 Z M 114.785156 106.386719 " fill-opacity="1" fill-rule="nonzero"/><path fill="#5271ff" d="M 114.785156 116.371094 L 129.496094 116.371094 L 129.496094 122.992188 L 114.785156 122.992188 Z M 114.785156 116.371094 " fill-opacity="1" fill-rule="nonzero"/><path fill="#5271ff" d="M 114.785156 126.40625 L 129.496094 126.40625 L 129.496094 133.027344 L 114.785156 133.027344 Z M 114.785156 126.40625 " fill-opacity="1" fill-rule="nonzero"/><path fill="#5271ff" d="M 133.421875 96.351562 L 148.132812 96.351562 L 148.132812 102.972656 L 133.421875 102.972656 Z M 133.421875 96.351562 " fill-opacity="1" fill-rule="nonzero"/><path fill="#5271ff" d="M 133.421875 106.386719 L 148.132812 106.386719 L 148.132812 113.007812 L 133.421875 113.007812 Z M 133.421875 106.386719 " fill-opacity="1" fill-rule="nonzero"/><path fill="#5271ff" d="M 133.421875 116.371094 L 148.132812 116.371094 L 148.132812 122.992188 L 133.421875 122.992188 Z M 133.421875 116.371094 " fill-opacity="1" fill-rule="nonzero"/><path fill="#5271ff" d="M 133.421875 126.40625 L 148.132812 126.40625 L 148.132812 133.027344 L 133.421875 133.027344 Z M 133.421875 126.40625 " fill-opacity="1" fill-rule="nonzero"/><path fill="#5271ff" d="M 152.105469 16.222656 L 166.816406 16.222656 L 166.816406 22.84375 L 152.105469 22.84375 Z M 152.105469 16.222656 " fill-opacity="1" fill-rule="nonzero"/><path fill="#5271ff" d="M 152.105469 26.257812 L 166.816406 26.257812 L 166.816406 32.878906 L 152.105469 32.878906 Z M 152.105469 26.257812 " fill-opacity="1" fill-rule="nonzero"/><path fill="#5271ff" d="M 152.105469 36.242188 L 166.816406 36.242188 L 166.816406 42.863281 L 152.105469 42.863281 Z M 152.105469 36.242188 " fill-opacity="1" fill-rule="nonzero"/><path fill="#5271ff" d="M 152.105469 46.277344 L 166.816406 46.277344 L 166.816406 52.898438 L 152.105469 52.898438 Z M 152.105469 46.277344 " fill-opacity="1" fill-rule="nonzero"/><path fill="#5271ff" d="M 152.105469 56.3125 L 166.816406 56.3125 L 166.816406 62.933594 L 152.105469 62.933594 Z M 152.105469 56.3125 " fill-opacity="1" fill-rule="nonzero"/><path fill="#5271ff" d="M 152.105469 66.296875 L 166.816406 66.296875 L 166.816406 72.917969 L 152.105469 72.917969 Z M 152.105469 66.296875 " fill-opacity="1" fill-rule="nonzero"/><path fill="#5271ff" d="M 152.105469 76.332031 L 166.816406 76.332031 L 166.816406 82.953125 L 152.105469 82.953125 Z M 152.105469 76.332031 " fill-opacity="1" fill-rule="nonzero"/><path fill="#5271ff" d="M 152.105469 86.316406 L 166.816406 86.316406 L 166.816406 92.9375 L 152.105469 92.9375 Z M 152.105469 86.316406 " fill-opacity="1" fill-rule="nonzero"/><path fill="#5271ff" d="M 152.105469 96.351562 L 166.816406 96.351562 L 166.816406 102.972656 L 152.105469 102.972656 Z M 152.105469 96.351562 " fill-opacity="1" fill-rule="nonzero"/><path fill="#5271ff" d="M 152.105469 106.386719 L 166.816406 106.386719 L 166.816406 113.007812 L 152.105469 113.007812 Z M 152.105469 106.386719 " fill-opacity="1" fill-rule="nonzero"/><path fill="#5271ff" d="M 152.105469 116.371094 L 166.816406 116.371094 L 166.816406 122.992188 L 152.105469 122.992188 Z M 152.105469 116.371094 " fill-opacity="1" fill-rule="nonzero"/><path fill="#5271ff" d="M 152.105469 126.40625 L 166.816406 126.40625 L 166.816406 133.027344 L 152.105469 133.027344 Z M 152.105469 126.40625 " fill-opacity="1" fill-rule="nonzero"/><path fill="#5271ff" d="M 170.792969 76.332031 L 185.503906 76.332031 L 185.503906 82.953125 L 170.792969 82.953125 Z M 170.792969 76.332031 " fill-opacity="1" fill-rule="nonzero"/><path fill="#5271ff" d="M 170.792969 86.316406 L 185.503906 86.316406 L 185.503906 92.9375 L 170.792969 92.9375 Z M 170.792969 86.316406 " fill-opacity="1" fill-rule="nonzero"/><path fill="#5271ff" d="M 170.792969 96.351562 L 185.503906 96.351562 L 185.503906 102.972656 L 170.792969 102.972656 Z M 170.792969 96.351562 " fill-opacity="1" fill-rule="nonzero"/><path fill="#5271ff" d="M 170.792969 106.386719 L 185.503906 106.386719 L 185.503906 113.007812 L 170.792969 113.007812 Z M 170.792969 106.386719 " fill-opacity="1" fill-rule="nonzero"/><path fill="#5271ff" d="M 170.792969 116.371094 L 185.503906 116.371094 L 185.503906 122.992188 L 170.792969 122.992188 Z M 170.792969 116.371094 " fill-opacity="1" fill-rule="nonzero"/><path fill="#5271ff" d="M 170.792969 126.40625 L 185.503906 126.40625 L 185.503906 133.027344 L 170.792969 133.027344 Z M 170.792969 126.40625 " fill-opacity="1" fill-rule="nonzero"/><path fill="#5271ff" d="M 189.480469 116.371094 L 204.191406 116.371094 L 204.191406 122.992188 L 189.480469 122.992188 Z M 189.480469 116.371094 " fill-opacity="1" fill-rule="nonzero"/><path fill="#5271ff" d="M 189.480469 126.40625 L 204.191406 126.40625 L 204.191406 133.027344 L 189.480469 133.027344 Z M 189.480469 126.40625 " fill-opacity="1" fill-rule="nonzero"/><path fill="#5271ff" d="M 208.113281 96.351562 L 222.824219 96.351562 L 222.824219 102.972656 L 208.113281 102.972656 Z M 208.113281 96.351562 " fill-opacity="1" fill-rule="nonzero"/><path fill="#5271ff" d="M 208.113281 106.386719 L 222.824219 106.386719 L 222.824219 113.007812 L 208.113281 113.007812 Z M 208.113281 106.386719 " fill-opacity="1" fill-rule="nonzero"/><path fill="#5271ff" d="M 208.113281 116.371094 L 222.824219 116.371094 L 222.824219 122.992188 L 208.113281 122.992188 Z M 208.113281 116.371094 " fill-opacity="1" fill-rule="nonzero"/><path fill="#5271ff" d="M 208.113281 126.40625 L 222.824219 126.40625 L 222.824219 133.027344 L 208.113281 133.027344 Z M 208.113281 126.40625 " fill-opacity="1" fill-rule="nonzero"/><path fill="#5271ff" d="M 226.800781 66.296875 L 241.511719 66.296875 L 241.511719 72.917969 L 226.800781 72.917969 Z M 226.800781 66.296875 " fill-opacity="1" fill-rule="nonzero"/><path fill="#5271ff" d="M 226.800781 76.332031 L 241.511719 76.332031 L 241.511719 82.953125 L 226.800781 82.953125 Z M 226.800781 76.332031 " fill-opacity="1" fill-rule="nonzero"/><path fill="#5271ff" d="M 226.800781 86.316406 L 241.511719 86.316406 L 241.511719 92.9375 L 226.800781 92.9375 Z M 226.800781 86.316406 " fill-opacity="1" fill-rule="nonzero"/><path fill="#5271ff" d="M 226.800781 96.351562 L 241.511719 96.351562 L 241.511719 102.972656 L 226.800781 102.972656 Z M 226.800781 96.351562 " fill-opacity="1" fill-rule="nonzero"/><path fill="#5271ff" d="M 226.800781 106.386719 L 241.511719 106.386719 L 241.511719 113.007812 L 226.800781 113.007812 Z M 226.800781 106.386719 " fill-opacity="1" fill-rule="nonzero"/><path fill="#5271ff" d="M 226.800781 116.371094 L 241.511719 116.371094 L 241.511719 122.992188 L 226.800781 122.992188 Z M 226.800781 116.371094 " fill-opacity="1" fill-rule="nonzero"/><path fill="#5271ff" d="M 226.800781 126.40625 L 241.511719 126.40625 L 241.511719 133.027344 L 226.800781 133.027344 Z M 226.800781 126.40625 " fill-opacity="1" fill-rule="nonzero"/><path fill="#5271ff" d="M 245.488281 26.257812 L 260.199219 26.257812 L 260.199219 32.878906 L 245.488281 32.878906 Z M 245.488281 26.257812 " fill-opacity="1" fill-rule="nonzero"/><path fill="#5271ff" d="M 245.488281 36.242188 L 260.199219 36.242188 L 260.199219 42.863281 L 245.488281 42.863281 Z M 245.488281 36.242188 " fill-opacity="1" fill-rule="nonzero"/><path fill="#5271ff" d="M 245.488281 46.277344 L 260.199219 46.277344 L 260.199219 52.898438 L 245.488281 52.898438 Z M 245.488281 46.277344 " fill-opacity="1" fill-rule="nonzero"/><path fill="#5271ff" d="M 245.488281 56.3125 L 260.199219 56.3125 L 260.199219 62.933594 L 245.488281 62.933594 Z M 245.488281 56.3125 " fill-opacity="1" fill-rule="nonzero"/><path fill="#5271ff" d="M 245.488281 66.296875 L 260.199219 66.296875 L 260.199219 72.917969 L 245.488281 72.917969 Z M 245.488281 66.296875 " fill-opacity="1" fill-rule="nonzero"/><path fill="#5271ff" d="M 245.488281 76.332031 L 260.199219 76.332031 L 260.199219 82.953125 L 245.488281 82.953125 Z M 245.488281 76.332031 " fill-opacity="1" fill-rule="nonzero"/><path fill="#5271ff" d="M 245.488281 86.316406 L 260.199219 86.316406 L 260.199219 92.9375 L 245.488281 92.9375 Z M 245.488281 86.316406 " fill-opacity="1" fill-rule="nonzero"/><path fill="#5271ff" d="M 245.488281 96.351562 L 260.199219 96.351562 L 260.199219 102.972656 L 245.488281 102.972656 Z M 245.488281 96.351562 " fill-opacity="1" fill-rule="nonzero"/><path fill="#5271ff" d="M 245.488281 106.386719 L 260.199219 106.386719 L 260.199219 113.007812 L 245.488281 113.007812 Z M 245.488281 106.386719 " fill-opacity="1" fill-rule="nonzero"/><path fill="#5271ff" d="M 245.488281 116.371094 L 260.199219 116.371094 L 260.199219 122.992188 L 245.488281 122.992188 Z M 245.488281 116.371094 " fill-opacity="1" fill-rule="nonzero"/><path fill="#5271ff" d="M 245.488281 126.40625 L 260.199219 126.40625 L 260.199219 133.027344 L 245.488281 133.027344 Z M 245.488281 126.40625 " fill-opacity="1" fill-rule="nonzero"/><path fill="#5271ff" d="M 264.171875 46.277344 L 278.886719 46.277344 L 278.886719 52.898438 L 264.171875 52.898438 Z M 264.171875 46.277344 " fill-opacity="1" fill-rule="nonzero"/><path fill="#5271ff" d="M 264.171875 56.3125 L 278.886719 56.3125 L 278.886719 62.933594 L 264.171875 62.933594 Z M 264.171875 56.3125 " fill-opacity="1" fill-rule="nonzero"/><path fill="#5271ff" d="M 264.171875 66.296875 L 278.886719 66.296875 L 278.886719 72.917969 L 264.171875 72.917969 Z M 264.171875 66.296875 " fill-opacity="1" fill-rule="nonzero"/><path fill="#5271ff" d="M 264.171875 76.332031 L 278.886719 76.332031 L 278.886719 82.953125 L 264.171875 82.953125 Z M 264.171875 76.332031 " fill-opacity="1" fill-rule="nonzero"/><path fill="#5271ff" d="M 264.171875 86.316406 L 278.886719 86.316406 L 278.886719 92.9375 L 264.171875 92.9375 Z M 264.171875 86.316406 " fill-opacity="1" fill-rule="nonzero"/><path fill="#5271ff" d="M 264.171875 96.351562 L 278.886719 96.351562 L 278.886719 102.972656 L 264.171875 102.972656 Z M 264.171875 96.351562 " fill-opacity="1" fill-rule="nonzero"/><path fill="#5271ff" d="M 264.171875 106.386719 L 278.886719 106.386719 L 278.886719 113.007812 L 264.171875 113.007812 Z M 264.171875 106.386719 " fill-opacity="1" fill-rule="nonzero"/><path fill="#5271ff" d="M 264.171875 116.371094 L 278.886719 116.371094 L 278.886719 122.992188 L 264.171875 122.992188 Z M 264.171875 116.371094 " fill-opacity="1" fill-rule="nonzero"/><path fill="#5271ff" d="M 264.171875 126.40625 L 278.886719 126.40625 L 278.886719 133.027344 L 264.171875 133.027344 Z M 264.171875 126.40625 " fill-opacity="1" fill-rule="nonzero"/><g clip-path="url(#9f5ef0353d)"><path fill="#5271ff" d="M 282.808594 106.386719 L 297.519531 106.386719 L 297.519531 113.007812 L 282.808594 113.007812 Z M 282.808594 106.386719 " fill-opacity="1" fill-rule="nonzero"/></g><g clip-path="url(#08620f6a1d)"><path fill="#5271ff" d="M 282.808594 116.371094 L 297.519531 116.371094 L 297.519531 122.992188 L 282.808594 122.992188 Z M 282.808594 116.371094 " fill-opacity="1" fill-rule="nonzero"/></g><g clip-path="url(#7058dc4bc5)"><path fill="#5271ff" d="M 282.808594 126.40625 L 297.519531 126.40625 L 297.519531 133.027344 L 282.808594 133.027344 Z M 282.808594 126.40625 " fill-opacity="1" fill-rule="nonzero"/></g></svg>